<?xml version="1.0" encoding="utf-8"?>
<!-- Generator: Adobe Illustrator 24.3.0, SVG Export Plug-In . SVG Version: 6.00 Build 0)  -->
<svg version="1.1" id="Layer_1" xmlns="http://www.w3.org/2000/svg" xmlns:xlink="http://www.w3.org/1999/xlink" x="0px" y="0px"
	 viewBox="0 0 170.08 170.08" style="enable-background:new 0 0 170.08 170.08;" xml:space="preserve">
<style type="text/css">
	.st0{fill:none;stroke:#000000;stroke-width:0.133;stroke-miterlimit:10;}
	.st1{fill:#7F3F98;}
</style>
<g>
	<g>
		<circle class="st0" cx="85.04" cy="85.04" r="85.04"/>
		<g>
			<g>
				<path d="M103.69,118.26c-2.13,0.39-4.27,0.51-6.34-0.23c-0.91-0.32-1.38-1.13-1.5-2.1c-0.13-0.97-0.47-1.82-1.29-2.42
					c-0.37-0.27-0.69-0.31-1.01,0.12c-3.45,4.7-6.91,9.4-10.36,14.1c-0.88,1.2-1.73,2.42-2.65,3.58c-0.76,0.96-1.78,1.44-3.05,1.35
					c-0.85-0.06-1.52,0.63-2.45,0.55c-1.46-0.12-2.59-1.2-2.7-2.66c-0.12-1.55,0.37-2.85,1.27-4.03c1.68-2.21,3.41-4.38,5.08-6.6
					c0.97-1.29,0.77-2.18-0.66-2.99c-2.35-1.33-2.02-5.16,0.51-6.55c0.32-0.18,0.52-0.38,0.72-0.71c0.74-1.2,1.92-1.83,3.27-2.12
					c1.91-0.41,3.78-0.99,5.64-1.57c0.95-0.29,1.49-0.96,2-1.81c0.75-1.26,1.63-2.48,2.63-3.56c2.59-2.83,2.21-6.46-0.77-8.91
					c-1.45-1.19-2.92-2.12-4.74-2.44c-1.17-0.21-2.36-0.35-3.54-0.36c-2.87-0.04-5.74,0.01-8.61,0.04c-0.33,0-0.52,0.03-0.53-0.4
					c-0.01-0.5,0.33-0.28,0.52-0.28c4.68-0.04,9.38-0.23,14.05-0.05c3.76,0.15,6.28,2.39,7.86,5.74c0.14,0.3,0,1.06,0.69,0.79
					c0.54-0.21,0.58-0.72,0.41-1.29c-0.91-3.09-4.72-6.21-8.13-6.6c-2.9-0.33-5.8-0.1-8.7-0.14c-2.4-0.04-4.79,0.04-7.19-0.02
					c-0.89-0.02-1.15,0.18-1.14,1.11c0.05,8.97,0.05,17.94,0.06,26.91c0,1.81-0.19,2-1.98,2.01c-2.14,0-4.29,0.01-6.43,0.01
					c-1.27,0-1.58-0.28-1.58-1.5C63.03,93.06,63,70.87,62.98,48.68c0-1.22,0.29-1.52,1.45-1.52c9.19,0,18.38-0.09,27.56,0.03
					c9.19,0.13,17.61,7.64,19.01,16.71c0.46,2.99,0.25,5.92-0.68,8.8c-0.18,0.57-0.3,0.85,0.55,0.68c5.33-1.06,10.69-1.99,16.11-2.4
					c4.88-0.37,9.78-0.6,14.58,0.75c2.58,0.73,4.44,2.21,4.88,5.07c0.31,2.04-0.83,4.23-2.5,4.64c-0.11,0.03-0.21,0.06-0.31,0.1
					c-1.03,0.37-1.61-1.28-2.89-0.5c-0.92,0.56-2-0.12-2.95-0.62c-1.24-0.65-2.62-0.86-4-0.95c-2.46-0.15-4.94-0.16-7.4,0.03
					c-3.17,0.24-6.35,0.53-9.5,1.01c-0.5,0.08-1,0.15-1.51,0.23c-0.31,0.04-0.54,0.12-0.52,0.53c0.08,1.68-0.73,3.07-1.52,4.45
					c-1.17,2.05-2.53,3.98-3.97,5.84c-0.67,0.87-1,1.65-0.82,2.83c0.43,2.8,0.21,5.65,0.2,8.48c0,0.81,0.09,1.18,1.06,1.23
					c1.91,0.1,3.81,0.38,5.44,1.58c1.86,1.37,2.59,3.25,2.53,5.47c-0.04,1.26-0.71,1.98-1.95,2.27c-0.48,0.11-0.83,0.28-1.08,0.77
					c-0.65,1.24-2.45,1.84-3.74,1.3c-0.43-0.18-0.86-0.39-1.3-0.56c-0.51-0.19-0.93-0.2-0.93,0.55c0,0.88-0.58,1.2-1.36,1.2
					c-2.47,0.02-4.94,0.01-7.41,0.01c-0.8,0-1.21-0.41-1.22-1.21c-0.01-0.8-0.02-1.6-0.03-2.4c-0.01-0.39,0.05-0.8-0.58-0.79
					c-0.53,0.01-0.68,0.25-0.67,0.73c0.01,0.91-0.07,1.82-0.03,2.72c0.06,1.47,0.94,2.32,2.42,2.39c0.65,0.03,1.31,0,1.96,0.02
					C102.48,118.19,103.09,118.23,103.69,118.26z M97.86,75.58c3.91-0.29,7.34-1.21,10.84-1.81c0.5-0.08,0.51-0.47,0.63-0.78
					c0.77-1.98,1.11-4.06,1.09-6.16c-0.06-5.47-2.21-10.02-6.26-13.7c-3.91-3.56-8.54-5.2-13.77-5.2c-8.46-0.01-16.92,0.04-25.38,0
					c-1,0-1.16,0.28-1.15,1.2c0.05,17.61,0.07,35.22,0.09,52.83c0.01,4.36,0.03,8.72,0,13.07c0,0.66,0.13,0.86,0.83,0.85
					c2.1-0.05,4.21-0.07,6.32,0c0.88,0.03,1.14-0.17,1.14-1.11c-0.05-9.3-0.04-18.59-0.08-27.89c0-0.74,0.16-0.97,0.94-0.97
					c4.97,0.03,9.95,0.02,14.92-0.01c4.76-0.02,8.18,2.19,10.57,6.19c0.21,0.35,0.29,0.79,0.76,1.06c1.33-1.87,2.64-3.68,3.93-5.53
					c1.13-1.63,1.11-1.74-0.3-3.17c-0.2-0.21-0.46-0.36-0.63-0.59c-0.59-0.74-1.28-0.63-2.11-0.46c-2.02,0.43-4.03,0.93-6.12,0.82
					c-3.12-0.16-4.6-2.64-3.18-5.35c0.54-1.04-0.17-0.9-0.75-0.9C84.5,77.98,78.84,77.96,73.17,78c-0.88,0.01-1.05-0.26-1.04-1.08
					c0.02-6.65,0.02-13.29-0.03-19.94c-0.01-0.94,0.27-1.1,1.14-1.1c5.81,0.03,11.62,0.01,17.43-0.01c0.84,0,1.66,0.07,2.49,0.23
					c5.96,1.14,9.97,7.19,8.72,13.09C101.34,71.71,99.97,73.67,97.86,75.58z M72.99,66.9c0,3.12,0.01,6.25,0.02,9.37
					c0,0.41-0.15,0.87,0.59,0.86c5.96-0.04,11.91-0.05,17.87-0.08c0.28,0,0.57,0.05,0.81-0.35c0.9-1.52,1.99-1.98,3.71-1.55
					c0.58,0.15,0.94,0.02,1.37-0.31c3.29-2.51,4.71-6.82,3.52-10.78c-1.16-3.87-5.07-7.16-9.02-7.24
					c-6.06-0.13-12.13-0.03-18.19-0.07c-0.75,0-0.69,0.39-0.69,0.88C72.99,60.72,72.99,63.81,72.99,66.9z M113.34,79.93
					c1.52-0.22,2.89-0.4,4.25-0.61c6.31-1.01,12.65-1.71,19.05-1.42c2.11,0.09,4.32,0.06,5.77,2.26c0.69,1.04,2.12,0.64,2.72-0.6
					c0.5-1.04,0.64-2.14,0.36-3.28c-0.58-2.32-2.38-3.3-4.45-3.83c-4.85-1.24-9.79-1-14.7-0.57c-7.07,0.62-14.02,2.08-20.99,3.38
					c-3.36,0.62-6.69,1.7-10.18,0.6c-0.8-0.25-1.66,0.2-2.07,1.06c-0.71,1.49-0.24,4.9,2.22,5.62c1.46,0.42,2.85,0.3,4.29,0.03
					c2.9-0.55,5.81-1.08,8.77-1.64c-1.07,3.04-3,5.46-4.73,7.99c-3.58,5.23-7.73,10.05-11.07,15.45c-0.62,0.99-1.53,1.6-2.65,1.95
					c-2.28,0.71-4.54,1.46-6.88,1.98c-2.72,0.61-3.67,2.01-3.38,4.78c0.21,2.06,1.52,2.86,3.43,2.09c0.57-0.23,1.13-0.49,1.97-0.86
					c-2.71,3.77-5.17,7.3-8.07,10.49c-0.77,0.85-1.29,1.82-1.48,2.97c-0.24,1.47,0.51,3.36,1.6,3.88c1.08,0.52,2.22,0.01,3.37-1.51
					c0.04-0.06,0.09-0.12,0.13-0.18c4.25-5.82,8.5-11.64,12.74-17.47c0.44-0.6,0.97-0.92,1.69-1.05c2.14-0.38,4.3-0.71,6.47-0.75
					c4.38-0.09,8.82-0.73,12.9,1.74c1.44,0.87,2.84-0.31,2.66-2.02c-0.27-2.49-1.86-4.41-4.3-5.03c-2.33-0.6-4.73-0.65-7.13-0.67
					c-2.26-0.01-4.52-0.05-6.96,0.26c0.24-0.39,0.36-0.6,0.49-0.81c2.06-3.16,4.3-6.18,6.59-9.18c2.68-3.51,5.45-6.96,7.54-10.88
					C114,82.77,114.4,81.41,113.34,79.93z M107.63,93.94c-2.61,3.32-5.06,6.56-7.4,10.11c1.83-0.25,3.45-0.18,5.08-0.23
					c0.85-0.02,2,0.49,2.46-0.09c0.43-0.54,0.16-1.66,0.14-2.53C107.85,98.83,108.1,96.46,107.63,93.94z M103.8,115.81
					c0.9,0,1.81,0,2.71,0c1.47,0,1.47,0,1.41-1.51c-0.02-0.46,0.09-0.96-0.64-1.02c-1.79-0.13-3.57-0.35-5.36-0.42
					c-2.17-0.07-2.29,0.13-2.25,2.28c0.01,0.63,0.26,0.69,0.76,0.68C101.56,115.8,102.68,115.81,103.8,115.81z"/>
			</g>
			<g>
				<path d="M68.21,118.2c-2.13,0.38-4.23,0.67-6.33,0.05c-1.14-0.34-1.93-1.7-1.95-3.33c-0.01-0.8,0-1.6,0-2.4
					c-0.03-19.93-0.06-39.87-0.07-59.8c0-1.3,0.21-2.61,1.46-3.53c0.24,0.43,0.28,0.87,0.29,1.32c0.03,0.91,0.06,1.81,0.06,2.72
					c0.03,20.73,0.05,41.46,0.08,62.2c0,1.98,0.78,2.75,2.77,2.77C65.75,118.21,66.98,118.2,68.21,118.2z"/>
			</g>
			<g>
				<path d="M96.83,73.33c2.27-4.17,1.25-9.34-2.66-12.35c-2.1-1.62-4.52-2.44-7.24-2.38c-3.95,0.09-7.91,0.05-11.86,0.06
					c-0.17,0-0.49,0.23-0.47-0.18c0.02-0.33,0.33-0.2,0.51-0.2c5.55-0.03,11.11-0.21,16.65-0.07c4.7,0.12,9.6,4.98,7.76,11.16
					c-0.24,0.8-0.53,1.57-1.07,2.2C97.94,72.17,97.38,72.73,96.83,73.33z"/>
			</g>
			<g>
				<path class="st1" d="M94.08,78.62c-0.12-1.76,0.35-1.8,1.79-1.38c2.48,0.73,4.79,0.18,7.15-0.24c4.46-0.8,8.91-1.62,13.35-2.5
					c2.86-0.56,5.77-0.77,8.64-1.26c0.88-0.15,1.82-0.2,2.69-0.18c2.2,0.03,4.36-0.57,6.59-0.12c1.32,0.27,2.73,0.04,4.1,0.25
					c1.94,0.29,3.87,0.55,5.3,2.12c0.86,0.94,0.89,2.66,0.39,3.66c-0.2,0.39-0.68,0.88-1.1,0.14c-1.21-2.21-3.45-2.1-5.47-2.45
					c-2.77-0.48-5.56-0.18-8.32,0.02c-4.05,0.3-8.09,0.69-12.09,1.47c-1.23,0.24-2.49,0.35-3.74,0.5c-0.58,0.07-1.23,0.07-1.53,0.64
					c-0.33,0.61,0.15,0.99,0.51,1.48c0.53,0.73,0.41,1.64,0.01,2.47c-1.28,2.69-3.07,5.06-4.83,7.43
					c-3.42,4.61-7.03,9.07-10.09,13.94c-0.27,0.43-0.69,0.81-0.38,1.36c0.34,0.6,0.97,0.47,1.47,0.38c2.65-0.47,5.33-0.5,8-0.4
					c1.93,0.07,3.91,0.18,5.78,0.63c2.09,0.5,3.31,1.54,3.39,3.97c0.03,0.82-0.45,1.19-1.07,0.71c-2.29-1.75-4.96-1.72-7.63-1.91
					c-4.17-0.3-8.25,0.23-12.33,0.93c-1.1,0.19-1.8,0.79-2.46,1.73c-2.69,3.8-5.5,7.5-8.26,11.25c-1.41,1.92-2.8,3.85-4.2,5.78
					c-0.19,0.26-0.36,0.55-0.59,0.77c-0.4,0.38-0.72,1.07-1.41,0.77c-0.67-0.29-0.94-0.98-1.05-1.68c-0.19-1.2,0.23-2.33,0.98-3.12
					c3.59-3.79,6.29-8.27,9.59-12.28c0.27-0.33,0.64-0.72,0.35-1.16c-0.33-0.5-0.82-0.13-1.18,0.01c-1.38,0.55-2.73,1.15-4.09,1.74
					c-0.8,0.35-1.18,0.13-1.36-0.75c-0.51-2.53,0.18-3.45,2.75-3.95c2.48-0.48,4.88-1.32,7.25-2.18c1.42-0.51,2.26-1.64,3.01-2.86
					c2.19-3.57,4.82-6.84,7.33-10.19c2.47-3.29,4.88-6.63,6.99-10.16c0.63-1.05,1.02-2.24,1.53-3.36c0.17-0.39,0.25-0.78-0.09-1.11
					c-0.34-0.33-0.71-0.17-1.11-0.07c-3.84,0.96-7.72,1.73-11.67,2.02C94.93,81.62,94.1,80.72,94.08,78.62z"/>
			</g>
		</g>
	</g>
</g>
</svg>
